# xmcd
#
# Track frame offsets: 
#        150
#        13161
#        35105
#        55959
#        78801
#        100830
#        119729
#        140899
#        158832
#        179185
#
# Disc length: 2649 seconds
#
# Revision: 0
# Processed by: cddbd v1.5.2PL0 Copyright (c) Steve Scherf et al.
# Submitted via: ExactAudioCopyFreeDBPlugin 1.0
#
DISCID=920a570a
DTITLE=รวมศิลปิน - รวมฮิต ซูซู and วงกะท้อน Disc 3
DYEAR=1900
DGENRE=
TTITLE0=ลูกสาวชาวนา
TTITLE1=นางสาวไทยแลนด์
TTITLE2=อ้ายจอร์นสัน
TTITLE3=บุญแข่งเรือ
TTITLE4=ซามูไรบุก
TTITLE5=ดีเจกลางแจ้ง
TTITLE6=จ๊ะเอ๋ ลิเกไทย
TTITLE7=ลมเล
TTITLE8=ผีตองเหลือง
TTITLE9=คนไม่ทันสมัย
EXTD=
EXTT0=
EXTT1=
EXTT2=
EXTT3=
EXTT4=
EXTT5=
EXTT6=
EXTT7=
EXTT8=
EXTT9=
PLAYORDER=
